HIERARCHY
ROOT root
{
	OFFSET 0.000000 0.000000 0.000000
	CHANNELS 6 Xposition Yposition Zposition Zrotation Yrotation Xrotation
	JOINT lhip
	{
		OFFSET 0.058581 -0.082280 -0.017664
		CHANNELS 3 Zrotation Yrotation Xrotation
		JOINT lknee
		{
			OFFSET 0.043451 -0.386469 0.008037
			CHANNELS 3 Zrotation Yrotation Xrotation
			JOINT lankle
			{
				OFFSET -0.014790 -0.426874 -0.037428
				CHANNELS 3 Zrotation Yrotation Xrotation
				JOINT ltoe
				{
					OFFSET 0.041054 -0.060286 0.122042
					CHANNELS 3 Zrotation Yrotation Xrotation
					End Site
					{
						OFFSET 0.000000 0.000000 0.000000
					}
				}
			}
		}
	}
	JOINT rhip
	{
		OFFSET -0.060310 -0.090513 -0.013543
		CHANNELS 3 Zrotation Yrotation Xrotation
		JOINT rknee
		{
			OFFSET -0.043257 -0.383688 -0.004843
			CHANNELS 3 Zrotation Yrotation Xrotation
			JOINT rankle
			{
				OFFSET 0.019056 -0.420046 -0.034562
				CHANNELS 3 Zrotation Yrotation Xrotation
				JOINT rtoe
				{
					OFFSET -0.034840 -0.062106 0.130323
					CHANNELS 3 Zrotation Yrotation Xrotation
					End Site
					{
						OFFSET 0.000000 0.000000 0.000000
					}
				}
			}
		}
	}
	JOINT lowerback
	{
		OFFSET 0.004439 0.124404 -0.038385
		CHANNELS 3 Zrotation Yrotation Xrotation
		JOINT upperback
		{
			OFFSET 0.004488 0.137956 0.026820
			CHANNELS 3 Zrotation Yrotation Xrotation
			JOINT chest
			{
				OFFSET -0.002265 0.056032 0.002855
				CHANNELS 3 Zrotation Yrotation Xrotation
				JOINT lowerneck
				{
					OFFSET -0.013390 0.211636 -0.033468
					CHANNELS 3 Zrotation Yrotation Xrotation
					JOINT upperneck
					{
						OFFSET 0.010113 0.088937 0.050410
						CHANNELS 3 Zrotation Yrotation Xrotation
						End Site
						{
							OFFSET 0.000000 0.000000 0.000000
						}
					}
				}
				JOINT lclavicle
				{
					OFFSET 0.071702 0.114000 -0.018898
					CHANNELS 3 Zrotation Yrotation Xrotation
					JOINT lshoulder
					{
						OFFSET 0.122921 0.045205 -0.019046
						CHANNELS 3 Zrotation Yrotation Xrotation
						JOINT lelbow
						{
							OFFSET 0.255332 -0.015649 -0.022946
							CHANNELS 3 Zrotation Yrotation Xrotation
							JOINT lwrist
							{
								OFFSET 0.265709 0.012698 -0.007375
								CHANNELS 3 Zrotation Yrotation Xrotation
								End Site
								{
									OFFSET 0.000000 0.000000 0.000000
								}
							}
						}
					}
				}
				JOINT rclavicle
				{
					OFFSET -0.082954 0.112472 -0.023707
					CHANNELS 3 Zrotation Yrotation Xrotation
					JOINT rshoulder
					{
						OFFSET -0.113228 0.046853 -0.008472
						CHANNELS 3 Zrotation Yrotation Xrotation
						JOINT relbow
						{
							OFFSET -0.260127 -0.014369 -0.031269
							CHANNELS 3 Zrotation Yrotation Xrotation
							JOINT rwrist
							{
								OFFSET -0.269108 0.006794 -0.006027
								CHANNELS 3 Zrotation Yrotation Xrotation
								End Site
								{
									OFFSET 0.000000 0.000000 0.000000
								}
							}
						}
					}
				}
			}
		}
	}
}
MOTION
Frames: 5
Frame Time: 0.033333
-0.561503 0.318020 0.993838 90.052715 0.483218 87.747008 0.310551 -1.047434 -5.497219 -3.801492 -5.365148 14.386941 4.486124 7.931963 -10.190870 0.000000 -0.000000 0.000000 1.415017 -4.764345 -3.800288 0.524802 -2.137612 14.148730 0.595869 -5.349580 -14.828030 0.000000 -0.000000 0.000000 0.131346 2.046438 4.574369 1.512365 -3.321910 -1.976229 0.457091 -1.451604 1.337007 0.984805 6.915498 2.483625 -0.049312 3.043835 6.698434 -17.604650 6.395642 -1.151067 -64.071145 -10.835029 11.227087 4.634860 -30.303929 16.491868 -8.159432 3.072838 -7.139766 16.757592 -1.095608 -3.182952 65.560176 8.876255 14.126459 -3.774662 17.815030 1.013542 12.636479 2.898050 -15.172529 
-0.560666 0.317622 0.993614 89.978581 0.428248 87.663594 0.227798 -1.055871 -5.397865 -3.845777 -5.732179 14.517753 4.362398 8.298599 -10.421688 0.000000 -0.000000 0.000000 1.416776 -4.899615 -3.763565 0.598344 -1.580475 14.353206 0.922168 -5.731311 -15.109530 0.000000 -0.000000 0.000000 0.170603 1.903602 4.609992 1.307187 -3.089391 -2.301126 0.466871 -1.399732 1.589696 1.254074 7.682256 2.272393 0.075434 3.611238 8.405132 -17.358541 6.552926 -0.958657 -64.186003 -11.007229 11.304449 4.573296 -29.379096 16.770313 -8.522774 2.779214 -6.631426 16.944798 -1.638659 -3.208705 65.476396 8.596812 14.314151 -3.536468 16.919251 0.805741 12.721045 3.201868 -14.679552 
-0.560023 0.317448 0.993309 89.950100 0.387876 87.632041 0.207768 -1.107991 -5.431154 -3.922956 -5.726401 14.692162 4.453202 8.428324 -10.381105 0.000000 -0.000000 0.000000 1.362420 -4.949263 -3.713098 0.675584 -1.364510 14.442031 0.708225 -5.813351 -15.009185 0.000000 -0.000000 0.000000 0.161778 1.871240 4.553925 1.382509 -3.179812 -2.341183 0.491785 -1.393069 1.552890 1.117904 7.782828 3.073219 0.034052 4.037810 8.909349 -17.450536 6.658219 -0.774408 -64.168012 -10.818714 11.135187 4.483203 -28.373449 16.748801 -8.775653 3.174580 -6.740757 17.003088 -1.854260 -2.955930 65.276135 8.265443 14.323091 -3.623257 16.689783 1.201242 13.088887 3.012035 -14.512321 
-0.559042 0.317701 0.992969 89.694643 0.358555 87.429839 0.156210 -1.066286 -5.176147 -3.974358 -5.739894 14.806540 4.533045 8.615887 -10.553340 0.000000 -0.000000 0.000000 1.253071 -4.857837 -3.426840 0.768953 -1.198099 14.432008 0.569793 -5.817517 -15.096962 0.000000 -0.000000 0.000000 0.351327 1.773177 4.463541 1.368516 -3.233609 -2.156269 0.348013 -1.327456 1.607316 1.062824 8.087284 4.147361 -0.078644 4.444536 9.500361 -17.559631 6.715549 -0.549721 -64.014456 -10.510684 10.920729 4.344365 -26.830955 16.851853 -9.176853 3.302981 -6.440592 17.069226 -2.024165 -2.536968 65.091535 8.042555 14.210934 -3.618341 16.181011 1.349831 13.163981 2.959003 -14.341839 
-0.558880 0.318050 0.992619 89.460026 0.356461 87.375136 0.115435 -1.073967 -5.169817 -3.982600 -5.652847 14.960848 4.668807 8.793146 -10.651970 0.000000 -0.000000 0.000000 1.210877 -4.775645 -3.450172 0.797674 -1.088183 14.589998 0.520228 -5.790100 -15.217812 0.000000 -0.000000 0.000000 0.451537 1.769907 4.478130 1.368375 -3.197279 -2.174112 0.309294 -1.343014 1.677114 1.055485 8.281610 4.801422 -0.194358 4.788023 9.945675 -17.594597 6.793694 -0.421806 -64.036403 -10.315729 10.765249 4.282718 -25.663841 16.770618 -9.401312 3.326166 -6.518719 16.983294 -2.206285 -2.394645 65.058469 7.865871 14.144045 -3.647361 15.940780 1.324055 13.257273 2.959888 -14.520700 
